<svg xmlns="http://www.w3.org/2000/svg" xmlns:xlink="http://www.w3.org/1999/xlink" width="500" zoomAndPan="magnify" viewBox="0 0 375 374.999991" height="500" preserveAspectRatio="xMidYMid meet" version="1.0"><defs><clipPath id="e86ec7735e"><path d="M 112 211 L 258 211 L 258 359 L 112 359 Z M 112 211 " clip-rule="nonzero"/></clipPath><clipPath id="f98b43f1b3"><path d="M 104.980469 273.835938 L 190.089844 203.390625 L 267.054688 296.382812 L 181.945312 366.824219 Z M 104.980469 273.835938 " clip-rule="nonzero"/></clipPath><clipPath id="22505a882f"><path d="M 118.269531 262.835938 L 175.355469 215.585938 C 178.882812 212.667969 183.421875 211.269531 187.976562 211.699219 C 192.53125 212.128906 196.726562 214.351562 199.644531 217.875 L 253.539062 282.992188 C 256.457031 286.515625 257.855469 291.054688 257.425781 295.609375 C 256.996094 300.164062 254.773438 304.363281 251.25 307.277344 L 194.160156 354.53125 C 190.636719 357.445312 186.097656 358.84375 181.542969 358.414062 C 176.988281 357.984375 172.789062 355.765625 169.875 352.238281 L 115.976562 287.121094 C 113.0625 283.597656 111.664062 279.058594 112.09375 274.503906 C 112.523438 269.949219 114.742188 265.753906 118.269531 262.835938 " clip-rule="nonzero"/></clipPath><clipPath id="6d70e65ef2"><path d="M 51.710938 69.953125 L 332 69.953125 L 332 234 L 51.710938 234 Z M 51.710938 69.953125 " clip-rule="nonzero"/></clipPath><clipPath id="58a9078b54"><path d="M 68.960938 69.953125 L 314.285156 69.953125 C 318.859375 69.953125 323.246094 71.773438 326.480469 75.007812 C 329.71875 78.242188 331.535156 82.628906 331.535156 87.203125 L 331.535156 216.386719 C 331.535156 220.960938 329.71875 225.347656 326.480469 228.582031 C 323.246094 231.816406 318.859375 233.636719 314.285156 233.636719 L 68.960938 233.636719 C 64.386719 233.636719 60 231.816406 56.765625 228.582031 C 53.527344 225.347656 51.710938 220.960938 51.710938 216.386719 L 51.710938 87.203125 C 51.710938 82.628906 53.527344 78.242188 56.765625 75.007812 C 60 71.773438 64.386719 69.953125 68.960938 69.953125 " clip-rule="nonzero"/></clipPath><clipPath id="30bed9d906"><path d="M 42 149 L 197 149 L 197 322 L 42 322 Z M 42 149 " clip-rule="nonzero"/></clipPath><clipPath id="557d906d42"><path d="M 35.726562 196.785156 L 122.730469 142.984375 L 204.507812 275.230469 L 117.507812 329.03125 Z M 35.726562 196.785156 " clip-rule="nonzero"/></clipPath><clipPath id="c847aa069b"><path d="M 50.398438 187.714844 L 107.90625 152.148438 C 111.796875 149.742188 116.484375 148.980469 120.9375 150.03125 C 125.390625 151.082031 129.242188 153.859375 131.648438 157.75 L 194.394531 259.210938 C 196.800781 263.101562 197.5625 267.789062 196.511719 272.242188 C 195.460938 276.695312 192.6875 280.550781 188.796875 282.957031 L 131.285156 318.519531 C 127.394531 320.925781 122.707031 321.6875 118.253906 320.636719 C 113.800781 319.585938 109.949219 316.8125 107.542969 312.921875 L 44.796875 211.457031 C 42.390625 207.566406 41.628906 202.878906 42.679688 198.425781 C 43.730469 193.972656 46.507812 190.121094 50.398438 187.714844 " clip-rule="nonzero"/></clipPath><clipPath id="d6bda46a76"><path d="M 107 204 L 286 204 L 286 340 L 107 340 Z M 107 204 " clip-rule="nonzero"/></clipPath><clipPath id="a00d065beb"><path d="M 124.574219 342.1875 L 104.679688 229.355469 L 269.898438 200.226562 L 289.789062 313.058594 Z M 124.574219 342.1875 " clip-rule="nonzero"/></clipPath><clipPath id="de9f240d27"><path d="M 121.578125 325.199219 L 107.972656 248.019531 C 107.175781 243.515625 108.207031 238.878906 110.828125 235.128906 C 113.453125 231.382812 117.460938 228.832031 121.964844 228.035156 L 251.566406 205.1875 C 256.074219 204.390625 260.710938 205.421875 264.457031 208.042969 C 268.203125 210.667969 270.757812 214.675781 271.550781 219.179688 L 285.15625 296.359375 C 285.953125 300.863281 284.925781 305.5 282.300781 309.25 C 279.675781 312.996094 275.671875 315.546875 271.164062 316.34375 L 141.5625 339.191406 C 137.054688 339.984375 132.417969 338.957031 128.671875 336.335938 C 124.925781 333.710938 122.371094 329.703125 121.578125 325.199219 " clip-rule="nonzero"/></clipPath><clipPath id="0ee4384f38"><path d="M 123 130 L 283 130 L 283 317 L 123 317 Z M 123 130 " clip-rule="nonzero"/></clipPath><clipPath id="7451283b46"><path d="M 221.910156 322.265625 L 116.84375 276.574219 L 183.746094 122.730469 L 288.8125 168.417969 Z M 221.910156 322.265625 " clip-rule="nonzero"/></clipPath><clipPath id="7effe80dc6"><path d="M 206.089844 315.386719 L 134.222656 284.132812 C 130.027344 282.308594 126.726562 278.890625 125.050781 274.636719 C 123.375 270.378906 123.457031 265.628906 125.28125 261.433594 L 177.765625 140.75 C 179.589844 136.554688 183.003906 133.257812 187.261719 131.582031 C 191.519531 129.902344 196.269531 129.988281 200.464844 131.8125 L 272.332031 163.066406 C 276.527344 164.890625 279.824219 168.304688 281.503906 172.5625 C 283.179688 176.820312 283.09375 181.566406 281.269531 185.761719 L 228.789062 306.445312 C 226.964844 310.640625 223.546875 313.941406 219.292969 315.617188 C 215.035156 317.292969 210.285156 317.210938 206.089844 315.386719 " clip-rule="nonzero"/></clipPath><clipPath id="db783570a6"><path d="M 136.941406 239.613281 L 268 239.613281 L 268 370.554688 L 136.941406 370.554688 Z M 136.941406 239.613281 " clip-rule="nonzero"/></clipPath><clipPath id="aa948e462d"><path d="M 202.660156 239.613281 C 166.363281 239.613281 136.941406 268.925781 136.941406 305.085938 C 136.941406 341.242188 166.363281 370.554688 202.660156 370.554688 C 238.953125 370.554688 268.375 341.242188 268.375 305.085938 C 268.375 268.925781 238.953125 239.613281 202.660156 239.613281 " clip-rule="nonzero"/></clipPath><clipPath id="962a3c0b42"><path d="M 21.402344 4.445312 L 353.652344 4.445312 L 353.652344 365 L 21.402344 365 Z M 21.402344 4.445312 " clip-rule="nonzero"/></clipPath></defs><g clip-path="url(#e86ec7735e)"><g clip-path="url(#f98b43f1b3)"><g clip-path="url(#22505a882f)"><path fill="#f9f6f2" d="M 104.980469 273.835938 L 188.511719 204.695312 L 264.171875 296.109375 L 180.640625 365.246094 Z M 104.980469 273.835938 " fill-opacity="1" fill-rule="nonzero"/></g></g></g><g clip-path="url(#6d70e65ef2)"><g clip-path="url(#58a9078b54)"><path fill="#f9f6f2" d="M 51.710938 69.953125 L 332 69.953125 L 332 233.628906 L 51.710938 233.628906 Z M 51.710938 69.953125 " fill-opacity="1" fill-rule="nonzero"/></g></g><g clip-path="url(#30bed9d906)"><g clip-path="url(#557d906d42)"><g clip-path="url(#c847aa069b)"><path fill="#f9f6f2" d="M 35.726562 196.785156 L 122.730469 142.984375 L 203.433594 273.488281 L 116.429688 327.292969 Z M 35.726562 196.785156 " fill-opacity="1" fill-rule="nonzero"/></g></g></g><g clip-path="url(#d6bda46a76)"><g clip-path="url(#a00d065beb)"><g clip-path="url(#de9f240d27)"><path fill="#f9f6f2" d="M 124.574219 342.1875 L 105.035156 231.371094 L 268.238281 202.597656 L 287.773438 313.414062 Z M 124.574219 342.1875 " fill-opacity="1" fill-rule="nonzero"/></g></g></g><g clip-path="url(#0ee4384f38)"><g clip-path="url(#7451283b46)"><g clip-path="url(#7effe80dc6)"><path fill="#f9f6f2" d="M 221.910156 322.265625 L 118.71875 277.390625 L 184.808594 125.421875 L 287.996094 170.296875 Z M 221.910156 322.265625 " fill-opacity="1" fill-rule="nonzero"/></g></g></g><g clip-path="url(#db783570a6)"><g clip-path="url(#aa948e462d)"><path fill="#f9f6f2" d="M 136.941406 239.613281 L 267.878906 239.613281 L 267.878906 370.554688 L 136.941406 370.554688 Z M 136.941406 239.613281 " fill-opacity="1" fill-rule="nonzero"/></g></g><g clip-path="url(#962a3c0b42)"><path fill="#737373" d="M 24.421875 55.65625 C 14.984375 139.792969 27.652344 212.320312 62.398438 273.257812 C 76.710938 295.8125 115.398438 332.128906 150.988281 351.152344 C 170.519531 361.589844 177.480469 364.746094 194.757812 347.777344 C 203.238281 339.449219 207.746094 329.472656 208.273438 317.839844 C 209.230469 296.871094 195.679688 299.480469 177.449219 298.691406 C 147.703125 297.398438 115.371094 300.378906 92.242188 270.144531 C 79.652344 253.691406 70.972656 236.523438 76.597656 215.332031 C 69.171875 215.207031 65.6875 216.523438 61.9375 218.363281 C 68.136719 204.914062 70.746094 191.042969 94.789062 181.695312 C 91.761719 179.488281 77.683594 174.339844 70.34375 174.457031 C 89.484375 158.824219 116.507812 156.902344 135.117188 160.46875 C 135.648438 157.351562 113.890625 140.421875 104.785156 136.40625 C 134.027344 132.65625 191.003906 137.5625 221.289062 145.160156 C 197.792969 120.503906 187.847656 96.578125 191.464844 73.378906 C 208.191406 94.785156 232.210938 113.375 263.511719 129.144531 C 273.210938 134.03125 279.941406 134.441406 284.378906 144.453125 L 289.066406 155.078125 C 293.03125 164.0625 294.476562 164.445312 303.382812 168.78125 L 318.789062 176.285156 C 326.425781 180.003906 324.828125 186.417969 323.835938 188.011719 C 320.851562 192.8125 318.480469 196.675781 316.703125 199.578125 C 313.664062 204.554688 310.941406 202.703125 309.886719 201.988281 C 297.269531 193.453125 279.972656 183.820312 257.929688 173.183594 C 260.324219 192.417969 272.164062 203.742188 293.449219 207.160156 L 279.40625 230.601562 C 261.335938 200.902344 241.992188 191.238281 221.367188 201.601562 C 222.875 198.945312 228.253906 194.484375 230.660156 193.929688 C 224.917969 191.109375 215.75 193.636719 210 195.800781 C 213.574219 191.644531 217.625 189.167969 222.15625 188.367188 C 166.609375 136.972656 62.816406 237.109375 189.515625 251.351562 C 204.71875 253.058594 220.699219 254.605469 234.972656 257.214844 C 273.570312 264.273438 281.050781 279.867188 266.347656 318.378906 C 260.234375 334.398438 249.289062 349.84375 233.515625 364.710938 C 326.320312 289.917969 365.375 186.90625 350.648438 55.65625 C 269.679688 41.789062 215.304688 24.882812 187.535156 4.933594 C 159.765625 24.878906 105.394531 41.789062 24.421875 55.65625 Z M 276.660156 159.757812 C 267.101562 159.222656 261.59375 154.425781 260.140625 145.363281 Z M 276.660156 159.757812 " fill-opacity="1" fill-rule="evenodd"/></g><path fill="#737373" d="M 161.695312 356.582031 C 173.839844 362.035156 181.054688 361.238281 194.757812 347.777344 C 203.238281 339.449219 207.746094 329.472656 208.273438 317.839844 C 209.230469 296.871094 195.679688 299.480469 177.449219 298.691406 C 147.703125 297.398438 115.371094 300.378906 92.242188 270.144531 C 79.652344 253.691406 70.972656 236.523438 76.597656 215.332031 C 69.171875 215.207031 65.6875 216.523438 61.9375 218.363281 C 68.136719 204.914062 70.746094 191.042969 94.789062 181.695312 C 91.761719 179.488281 77.683594 174.339844 70.34375 174.457031 C 81.148438 165.636719 94.460938 161.179688 107.351562 159.613281 C 89.195312 157.386719 65.394531 160.300781 48.0625 174.457031 C 55.398438 174.339844 69.480469 179.488281 72.507812 181.695312 C 48.464844 191.042969 45.855469 204.914062 39.65625 218.363281 C 43.402344 216.519531 46.886719 215.207031 54.3125 215.332031 C 48.6875 236.523438 57.371094 253.691406 69.957031 270.144531 C 93.085938 300.378906 125.417969 297.398438 155.164062 298.691406 C 173.398438 299.480469 186.945312 296.871094 185.992188 317.839844 C 185.460938 329.472656 180.957031 339.449219 172.476562 347.777344 C 168.410156 351.769531 164.917969 354.648438 161.695312 356.582031 Z M 112.398438 159.144531 C 120.558594 158.609375 128.386719 159.179688 135.117188 160.46875 C 135.648438 157.351562 113.890625 140.421875 104.785156 136.40625 C 114.070312 135.214844 126.148438 134.898438 139.277344 135.261719 C 118.523438 133.683594 98.636719 134.609375 86.746094 140.871094 C 94.859375 144.449219 109.652344 154.738281 112.398438 159.144531 Z M 194.316406 140.046875 C 204.414062 141.515625 213.691406 143.253906 221.289062 145.160156 C 205.855469 128.96875 196.273438 113.089844 192.535156 97.523438 C 183.601562 89.917969 175.816406 81.871094 169.179688 73.378906 C 165.816406 94.96875 174.199219 117.191406 194.316406 140.046875 Z M 297.683594 194.261719 C 286.804688 187.761719 273.558594 180.726562 257.929688 173.183594 C 258.546875 178.128906 259.789062 182.546875 261.652344 186.445312 C 271.8125 191.96875 280.457031 197.15625 287.601562 201.988281 C 288.65625 202.703125 291.378906 204.554688 294.421875 199.578125 C 295.347656 198.066406 296.433594 196.292969 297.683594 194.261719 Z M 267.191406 213.792969 C 254.042969 199.117188 240.261719 194.40625 225.84375 199.664062 C 236.664062 203.800781 247.089844 214.113281 257.125 230.601562 Z M 223.578125 198.882812 C 225.828125 196.625 228.972656 194.320312 230.660156 193.929688 C 224.917969 191.109375 215.75 193.636719 210 195.800781 C 213.574219 191.644531 217.625 189.167969 222.15625 188.367188 C 207.640625 174.9375 189.832031 171.867188 173.699219 174.894531 C 182.871094 176.71875 191.871094 180.964844 199.871094 188.367188 C 195.34375 189.167969 191.292969 191.644531 187.714844 195.800781 C 193.46875 193.636719 202.636719 191.109375 208.378906 193.929688 C 205.96875 194.484375 200.589844 198.945312 199.085938 201.601562 C 207.460938 197.394531 215.625 196.488281 223.578125 198.882812 Z M 267.902344 157.515625 C 267.550781 156.78125 267.179688 155.972656 266.785156 155.078125 L 263.972656 148.703125 L 260.140625 145.363281 C 261.070312 151.160156 263.65625 155.210938 267.902344 157.515625 Z M 267.902344 157.515625 " fill-opacity="1" fill-rule="evenodd"/><path fill="#3c3b3d" d="M 164.027344 357.570312 C 174.816406 361.875 181.953125 360.351562 194.757812 347.777344 C 203.238281 339.449219 207.746094 329.472656 208.273438 317.839844 C 209.230469 296.871094 195.679688 299.480469 177.449219 298.691406 C 147.703125 297.398438 115.371094 300.378906 92.242188 270.144531 C 79.652344 253.691406 70.972656 236.523438 76.597656 215.332031 C 69.171875 215.207031 65.6875 216.523438 61.9375 218.363281 C 68.136719 204.914062 70.746094 191.042969 94.789062 181.695312 C 91.761719 179.488281 77.683594 174.339844 70.34375 174.457031 C 81.722656 165.164062 95.890625 160.714844 109.417969 159.386719 C 91.546875 157.621094 68.871094 160.832031 52.1875 174.457031 C 59.527344 174.339844 73.605469 179.488281 76.632812 181.695312 C 52.589844 191.042969 49.980469 204.914062 43.78125 218.363281 C 47.53125 216.519531 51.015625 215.207031 58.441406 215.332031 C 52.816406 236.523438 61.496094 253.691406 74.085938 270.144531 C 97.214844 300.378906 129.546875 297.398438 159.292969 298.691406 C 177.523438 299.480469 191.074219 296.871094 190.117188 317.839844 C 189.589844 329.472656 185.082031 339.449219 176.601562 347.777344 C 171.769531 352.523438 167.746094 355.695312 164.027344 357.570312 Z M 116.410156 158.96875 C 123.117188 158.816406 129.5 159.394531 135.117188 160.46875 C 135.648438 157.351562 113.890625 140.421875 104.785156 136.40625 C 115.808594 134.992188 130.777344 134.808594 146.765625 135.539062 C 124.816406 133.597656 103.402344 134.269531 90.875 140.871094 C 98.882812 144.402344 113.394531 154.472656 116.410156 158.96875 Z M 199.089844 140.769531 C 207.332031 142.078125 214.90625 143.558594 221.289062 145.160156 C 204.382812 127.421875 194.496094 110.0625 191.625 93.074219 C 184.769531 86.796875 178.664062 80.234375 173.308594 73.378906 C 169.910156 95.199219 178.503906 117.664062 199.089844 140.769531 Z M 300.691406 196.082031 C 289.273438 189.082031 275.03125 181.433594 257.929688 173.183594 C 258.402344 176.953125 259.234375 180.421875 260.429688 183.582031 C 272.933594 190.183594 283.363281 196.328125 291.730469 201.988281 C 292.785156 202.703125 295.507812 204.554688 298.546875 199.578125 C 299.183594 198.535156 299.898438 197.371094 300.691406 196.082031 Z M 269.621094 216.628906 C 256.382812 200.511719 242.492188 194.621094 227.953125 198.964844 C 239.496094 202.542969 250.59375 213.089844 261.25 230.601562 Z M 224.410156 198.085938 C 226.550781 196.105469 229.171875 194.273438 230.660156 193.929688 C 224.917969 191.109375 215.75 193.636719 210 195.800781 C 210.417969 195.3125 210.84375 194.847656 211.277344 194.410156 C 208.605469 195.753906 204.496094 199.335938 203.210938 201.601562 C 210.433594 197.972656 217.5 196.800781 224.410156 198.085938 Z M 212 193.699219 C 215.066406 190.796875 218.449219 189.019531 222.15625 188.367188 C 208.265625 175.515625 191.363281 172.140625 175.796875 174.523438 C 185.664062 176.101562 195.410156 180.417969 204 188.367188 C 199.472656 189.167969 195.417969 191.644531 191.84375 195.800781 C 197.429688 193.699219 206.234375 191.257812 212 193.699219 Z M 272.933594 159.292969 C 272.304688 158.132812 271.652344 156.757812 270.910156 155.078125 L 270.675781 154.542969 L 260.140625 145.363281 C 261.394531 153.171875 265.65625 157.816406 272.933594 159.292969 Z M 272.933594 159.292969 " fill-opacity="1" fill-rule="evenodd"/></svg>